<mxfile host="www.draw.io" modified="2020-02-19T15:28:00.523Z" agent="Mozilla/5.0 (Windows NT 10.0; Win64; x64) AppleWebKit/537.36 (KHTML, like Gecko) Chrome/80.0.3987.106 Safari/537.36" etag="SNkiX55Bsa3NcfOzKlC4" version="12.7.2" type="github">
  <diagram id="qQWEQSTCm0qtHGcmOT5K" name="Page-1">
    <mxGraphModel dx="2249" dy="745" grid="1" gridSize="10" guides="1" tooltips="1" connect="1" arrows="1" fold="1" page="1" pageScale="1" pageWidth="827" pageHeight="1169" math="0" shadow="0">
      <root>
        <mxCell id="0" />
        <mxCell id="1" parent="0" />
        <mxCell id="fKSy154ImKtxsts-Qh9P-3" value="Business Needs &lt;b&gt;(Product Owner)&lt;/b&gt;" style="rounded=0;whiteSpace=wrap;html=1;fillColor=#fff2cc;strokeColor=#d6b656;" parent="1" vertex="1">
          <mxGeometry x="-570" y="230" width="180" height="80" as="geometry" />
        </mxCell>
        <mxCell id="fKSy154ImKtxsts-Qh9P-4" value="&lt;b&gt;Users&lt;/b&gt;" style="ellipse;whiteSpace=wrap;html=1;aspect=fixed;fillColor=#f8cecc;strokeColor=#b85450;" parent="1" vertex="1">
          <mxGeometry x="-710" y="380" width="100" height="100" as="geometry" />
        </mxCell>
        <mxCell id="fKSy154ImKtxsts-Qh9P-5" value="User Story&lt;b&gt;(B.A)&lt;/b&gt;&lt;br&gt;user story = role + functions + bussiness value" style="rounded=0;whiteSpace=wrap;html=1;fillColor=#fff2cc;strokeColor=#d6b656;" parent="1" vertex="1">
          <mxGeometry x="-320" y="230" width="170" height="80" as="geometry" />
        </mxCell>
        <mxCell id="fKSy154ImKtxsts-Qh9P-6" value="Trace Matrix&lt;b&gt;(Q.A)&lt;/b&gt;&amp;nbsp;&lt;br&gt;Scenario" style="rounded=0;whiteSpace=wrap;html=1;fillColor=#fff2cc;strokeColor=#d6b656;" parent="1" vertex="1">
          <mxGeometry x="-80" y="230" width="150" height="80" as="geometry" />
        </mxCell>
        <mxCell id="fKSy154ImKtxsts-Qh9P-7" value="API Functions &lt;b&gt;(Front End)&lt;/b&gt;" style="rounded=0;whiteSpace=wrap;html=1;fillColor=#fff2cc;strokeColor=#d6b656;" parent="1" vertex="1">
          <mxGeometry x="160" y="230" width="150" height="80" as="geometry" />
        </mxCell>
        <mxCell id="fKSy154ImKtxsts-Qh9P-8" value="&lt;b&gt;Architect&lt;/b&gt;" style="rounded=0;whiteSpace=wrap;html=1;fillColor=#fff2cc;strokeColor=#d6b656;" parent="1" vertex="1">
          <mxGeometry x="400" y="230" width="160" height="80" as="geometry" />
        </mxCell>
        <mxCell id="fKSy154ImKtxsts-Qh9P-9" value="Tasks (&lt;b&gt;Front - End &amp;amp; Back - End&lt;/b&gt;)" style="rounded=0;whiteSpace=wrap;html=1;fillColor=#dae8fc;strokeColor=#6c8ebf;" parent="1" vertex="1">
          <mxGeometry x="400" y="470" width="160" height="70" as="geometry" />
        </mxCell>
        <mxCell id="fKSy154ImKtxsts-Qh9P-10" value="&lt;b&gt;Tasks (Front - End)&lt;/b&gt;" style="rounded=0;whiteSpace=wrap;html=1;fillColor=#dae8fc;strokeColor=#6c8ebf;" parent="1" vertex="1">
          <mxGeometry x="150" y="470" width="170" height="70" as="geometry" />
        </mxCell>
        <mxCell id="fKSy154ImKtxsts-Qh9P-11" value="approval of the list of tasks and setting priorities" style="rounded=0;whiteSpace=wrap;html=1;fillColor=#f5f5f5;strokeColor=#666666;fontColor=#333333;" parent="1" vertex="1">
          <mxGeometry x="400" y="350" width="160" height="70" as="geometry" />
        </mxCell>
        <mxCell id="8IddTJkrh0bzfAvgI1gN-1" value="&lt;b&gt;UI(UX)&lt;/b&gt;" style="rounded=0;whiteSpace=wrap;html=1;fillColor=#dae8fc;strokeColor=#6c8ebf;" vertex="1" parent="1">
          <mxGeometry x="-320" y="390" width="170" height="60" as="geometry" />
        </mxCell>
        <mxCell id="8IddTJkrh0bzfAvgI1gN-2" value="Autotests" style="rounded=0;whiteSpace=wrap;html=1;fillColor=#f5f5f5;strokeColor=#666666;fontColor=#333333;" vertex="1" parent="1">
          <mxGeometry x="-480" y="390" width="120" height="60" as="geometry" />
        </mxCell>
        <mxCell id="8IddTJkrh0bzfAvgI1gN-3" value="&lt;b&gt;DevOps&lt;/b&gt;" style="rounded=0;whiteSpace=wrap;html=1;fillColor=#e1d5e7;strokeColor=#9673a6;" vertex="1" parent="1">
          <mxGeometry x="200" y="640" width="160" height="70" as="geometry" />
        </mxCell>
        <mxCell id="8IddTJkrh0bzfAvgI1gN-4" value="&lt;b&gt;Tests QA&lt;/b&gt;" style="rounded=0;whiteSpace=wrap;html=1;fillColor=#e1d5e7;strokeColor=#9673a6;" vertex="1" parent="1">
          <mxGeometry x="-40" y="645" width="130" height="65" as="geometry" />
        </mxCell>
        <mxCell id="8IddTJkrh0bzfAvgI1gN-5" value="&lt;b&gt;DevOps&lt;/b&gt;" style="rounded=0;whiteSpace=wrap;html=1;fillColor=#e1d5e7;strokeColor=#9673a6;" vertex="1" parent="1">
          <mxGeometry x="-270" y="647.5" width="130" height="62.5" as="geometry" />
        </mxCell>
        <mxCell id="8IddTJkrh0bzfAvgI1gN-6" value="&lt;b&gt;Support&lt;/b&gt;" style="rounded=0;whiteSpace=wrap;html=1;fillColor=#e1d5e7;strokeColor=#9673a6;" vertex="1" parent="1">
          <mxGeometry x="-500" y="650" width="140" height="60" as="geometry" />
        </mxCell>
        <mxCell id="8IddTJkrh0bzfAvgI1gN-9" value="" style="endArrow=classic;html=1;exitX=0.5;exitY=1;exitDx=0;exitDy=0;entryX=0;entryY=0.5;entryDx=0;entryDy=0;" edge="1" parent="1" source="fKSy154ImKtxsts-Qh9P-4" target="8IddTJkrh0bzfAvgI1gN-6">
          <mxGeometry width="50" height="50" relative="1" as="geometry">
            <mxPoint x="-640" y="650" as="sourcePoint" />
            <mxPoint x="-590" y="600" as="targetPoint" />
            <Array as="points">
              <mxPoint x="-660" y="680" />
            </Array>
          </mxGeometry>
        </mxCell>
        <mxCell id="8IddTJkrh0bzfAvgI1gN-10" value="" style="endArrow=classic;html=1;exitX=0.5;exitY=0;exitDx=0;exitDy=0;entryX=0.011;entryY=0.35;entryDx=0;entryDy=0;entryPerimeter=0;" edge="1" parent="1" source="fKSy154ImKtxsts-Qh9P-4" target="fKSy154ImKtxsts-Qh9P-3">
          <mxGeometry width="50" height="50" relative="1" as="geometry">
            <mxPoint x="-680" y="310" as="sourcePoint" />
            <mxPoint x="-630" y="260" as="targetPoint" />
            <Array as="points">
              <mxPoint x="-660" y="260" />
            </Array>
          </mxGeometry>
        </mxCell>
        <mxCell id="8IddTJkrh0bzfAvgI1gN-11" value="" style="endArrow=classic;html=1;exitX=0.564;exitY=0;exitDx=0;exitDy=0;exitPerimeter=0;entryX=0.447;entryY=1.013;entryDx=0;entryDy=0;entryPerimeter=0;" edge="1" parent="1" source="8IddTJkrh0bzfAvgI1gN-6" target="fKSy154ImKtxsts-Qh9P-5">
          <mxGeometry width="50" height="50" relative="1" as="geometry">
            <mxPoint x="-520" y="610" as="sourcePoint" />
            <mxPoint x="-560" y="350" as="targetPoint" />
            <Array as="points">
              <mxPoint x="-420" y="560" />
              <mxPoint x="-490" y="560" />
              <mxPoint x="-560" y="560" />
              <mxPoint x="-560" y="360" />
              <mxPoint x="-244" y="360" />
            </Array>
          </mxGeometry>
        </mxCell>
        <mxCell id="8IddTJkrh0bzfAvgI1gN-12" value="" style="endArrow=classic;html=1;exitX=0.7;exitY=1;exitDx=0;exitDy=0;entryX=0.5;entryY=0;entryDx=0;entryDy=0;exitPerimeter=0;" edge="1" parent="1" source="8IddTJkrh0bzfAvgI1gN-2" target="8IddTJkrh0bzfAvgI1gN-5">
          <mxGeometry width="50" height="50" relative="1" as="geometry">
            <mxPoint x="-240" y="580" as="sourcePoint" />
            <mxPoint x="-190" y="530" as="targetPoint" />
            <Array as="points">
              <mxPoint x="-396" y="540" />
              <mxPoint x="-205" y="540" />
            </Array>
          </mxGeometry>
        </mxCell>
        <mxCell id="8IddTJkrh0bzfAvgI1gN-13" value="" style="endArrow=classic;html=1;exitX=0.541;exitY=1.013;exitDx=0;exitDy=0;exitPerimeter=0;entryX=0.541;entryY=0.033;entryDx=0;entryDy=0;entryPerimeter=0;" edge="1" parent="1" source="fKSy154ImKtxsts-Qh9P-5" target="8IddTJkrh0bzfAvgI1gN-1">
          <mxGeometry width="50" height="50" relative="1" as="geometry">
            <mxPoint x="-140" y="390" as="sourcePoint" />
            <mxPoint x="-90" y="340" as="targetPoint" />
          </mxGeometry>
        </mxCell>
        <mxCell id="8IddTJkrh0bzfAvgI1gN-14" value="" style="endArrow=classic;html=1;entryX=0.7;entryY=1.013;entryDx=0;entryDy=0;entryPerimeter=0;" edge="1" parent="1" target="fKSy154ImKtxsts-Qh9P-5">
          <mxGeometry width="50" height="50" relative="1" as="geometry">
            <mxPoint x="-201" y="392" as="sourcePoint" />
            <mxPoint x="-150" y="340" as="targetPoint" />
          </mxGeometry>
        </mxCell>
        <mxCell id="8IddTJkrh0bzfAvgI1gN-15" value="" style="endArrow=classic;html=1;exitX=1;exitY=0.5;exitDx=0;exitDy=0;" edge="1" parent="1" source="8IddTJkrh0bzfAvgI1gN-1">
          <mxGeometry width="50" height="50" relative="1" as="geometry">
            <mxPoint x="-70" y="400" as="sourcePoint" />
            <mxPoint y="310" as="targetPoint" />
            <Array as="points">
              <mxPoint y="420" />
            </Array>
          </mxGeometry>
        </mxCell>
        <mxCell id="8IddTJkrh0bzfAvgI1gN-16" value="" style="endArrow=classic;html=1;entryX=0.006;entryY=0.4;entryDx=0;entryDy=0;entryPerimeter=0;" edge="1" parent="1" target="fKSy154ImKtxsts-Qh9P-5">
          <mxGeometry width="50" height="50" relative="1" as="geometry">
            <mxPoint x="-391" y="262" as="sourcePoint" />
            <mxPoint x="-320" y="250" as="targetPoint" />
          </mxGeometry>
        </mxCell>
        <mxCell id="8IddTJkrh0bzfAvgI1gN-17" value="" style="endArrow=classic;html=1;exitX=1;exitY=0.5;exitDx=0;exitDy=0;entryX=0;entryY=0.5;entryDx=0;entryDy=0;" edge="1" parent="1" source="fKSy154ImKtxsts-Qh9P-5" target="fKSy154ImKtxsts-Qh9P-6">
          <mxGeometry width="50" height="50" relative="1" as="geometry">
            <mxPoint x="-140" y="300" as="sourcePoint" />
            <mxPoint x="-90" y="250" as="targetPoint" />
          </mxGeometry>
        </mxCell>
        <mxCell id="8IddTJkrh0bzfAvgI1gN-18" value="" style="endArrow=classic;html=1;exitX=1;exitY=0.5;exitDx=0;exitDy=0;entryX=0;entryY=0.5;entryDx=0;entryDy=0;" edge="1" parent="1" source="fKSy154ImKtxsts-Qh9P-6" target="fKSy154ImKtxsts-Qh9P-7">
          <mxGeometry width="50" height="50" relative="1" as="geometry">
            <mxPoint x="100" y="350" as="sourcePoint" />
            <mxPoint x="150" y="300" as="targetPoint" />
          </mxGeometry>
        </mxCell>
        <mxCell id="8IddTJkrh0bzfAvgI1gN-19" value="" style="endArrow=classic;html=1;exitX=1;exitY=0.5;exitDx=0;exitDy=0;entryX=0;entryY=0.5;entryDx=0;entryDy=0;" edge="1" parent="1" source="fKSy154ImKtxsts-Qh9P-7" target="fKSy154ImKtxsts-Qh9P-8">
          <mxGeometry width="50" height="50" relative="1" as="geometry">
            <mxPoint x="340" y="310" as="sourcePoint" />
            <mxPoint x="390" y="260" as="targetPoint" />
          </mxGeometry>
        </mxCell>
        <mxCell id="8IddTJkrh0bzfAvgI1gN-20" value="" style="endArrow=classic;html=1;exitX=0.5;exitY=1;exitDx=0;exitDy=0;entryX=0.5;entryY=0;entryDx=0;entryDy=0;" edge="1" parent="1" source="fKSy154ImKtxsts-Qh9P-8" target="fKSy154ImKtxsts-Qh9P-11">
          <mxGeometry width="50" height="50" relative="1" as="geometry">
            <mxPoint x="460" y="360" as="sourcePoint" />
            <mxPoint x="510" y="310" as="targetPoint" />
          </mxGeometry>
        </mxCell>
        <mxCell id="8IddTJkrh0bzfAvgI1gN-21" value="" style="endArrow=classic;html=1;exitX=0.5;exitY=1;exitDx=0;exitDy=0;entryX=0.5;entryY=0;entryDx=0;entryDy=0;" edge="1" parent="1" source="fKSy154ImKtxsts-Qh9P-11" target="fKSy154ImKtxsts-Qh9P-9">
          <mxGeometry width="50" height="50" relative="1" as="geometry">
            <mxPoint x="470" y="480" as="sourcePoint" />
            <mxPoint x="520" y="430" as="targetPoint" />
          </mxGeometry>
        </mxCell>
        <mxCell id="8IddTJkrh0bzfAvgI1gN-22" value="" style="endArrow=classic;html=1;exitX=0.5;exitY=1;exitDx=0;exitDy=0;entryX=0.5;entryY=0;entryDx=0;entryDy=0;" edge="1" parent="1" source="fKSy154ImKtxsts-Qh9P-7" target="fKSy154ImKtxsts-Qh9P-10">
          <mxGeometry width="50" height="50" relative="1" as="geometry">
            <mxPoint x="230" y="430" as="sourcePoint" />
            <mxPoint x="280" y="380" as="targetPoint" />
          </mxGeometry>
        </mxCell>
        <mxCell id="8IddTJkrh0bzfAvgI1gN-23" value="" style="endArrow=classic;html=1;exitX=1;exitY=0.5;exitDx=0;exitDy=0;entryX=0.5;entryY=1;entryDx=0;entryDy=0;" edge="1" parent="1" source="fKSy154ImKtxsts-Qh9P-8" target="fKSy154ImKtxsts-Qh9P-10">
          <mxGeometry width="50" height="50" relative="1" as="geometry">
            <mxPoint x="600" y="500" as="sourcePoint" />
            <mxPoint x="650" y="450" as="targetPoint" />
            <Array as="points">
              <mxPoint x="680" y="270" />
              <mxPoint x="680" y="590" />
              <mxPoint x="235" y="590" />
            </Array>
          </mxGeometry>
        </mxCell>
        <mxCell id="8IddTJkrh0bzfAvgI1gN-24" value="" style="endArrow=classic;html=1;exitX=0.5;exitY=1;exitDx=0;exitDy=0;entryX=0.994;entryY=0.614;entryDx=0;entryDy=0;entryPerimeter=0;" edge="1" parent="1" source="fKSy154ImKtxsts-Qh9P-9" target="8IddTJkrh0bzfAvgI1gN-3">
          <mxGeometry width="50" height="50" relative="1" as="geometry">
            <mxPoint x="530" y="770" as="sourcePoint" />
            <mxPoint x="580" y="720" as="targetPoint" />
            <Array as="points">
              <mxPoint x="480" y="683" />
            </Array>
          </mxGeometry>
        </mxCell>
        <mxCell id="8IddTJkrh0bzfAvgI1gN-25" value="" style="endArrow=classic;html=1;exitX=0.688;exitY=1.014;exitDx=0;exitDy=0;exitPerimeter=0;entryX=0.425;entryY=0;entryDx=0;entryDy=0;entryPerimeter=0;" edge="1" parent="1" source="fKSy154ImKtxsts-Qh9P-10" target="8IddTJkrh0bzfAvgI1gN-3">
          <mxGeometry width="50" height="50" relative="1" as="geometry">
            <mxPoint x="240" y="560" as="sourcePoint" />
            <mxPoint x="330" y="590" as="targetPoint" />
          </mxGeometry>
        </mxCell>
        <mxCell id="8IddTJkrh0bzfAvgI1gN-26" value="" style="endArrow=classic;html=1;entryX=0.9;entryY=1.05;entryDx=0;entryDy=0;entryPerimeter=0;" edge="1" parent="1" target="8IddTJkrh0bzfAvgI1gN-2">
          <mxGeometry width="50" height="50" relative="1" as="geometry">
            <mxPoint x="50" y="312" as="sourcePoint" />
            <mxPoint x="-100" y="500" as="targetPoint" />
            <Array as="points">
              <mxPoint x="50" y="520" />
              <mxPoint x="-372" y="520" />
            </Array>
          </mxGeometry>
        </mxCell>
        <mxCell id="8IddTJkrh0bzfAvgI1gN-27" value="" style="endArrow=classic;html=1;" edge="1" parent="1" target="8IddTJkrh0bzfAvgI1gN-4">
          <mxGeometry width="50" height="50" relative="1" as="geometry">
            <mxPoint x="200" y="677" as="sourcePoint" />
            <mxPoint x="160" y="640" as="targetPoint" />
          </mxGeometry>
        </mxCell>
        <mxCell id="8IddTJkrh0bzfAvgI1gN-28" value="" style="endArrow=classic;html=1;exitX=0;exitY=0.5;exitDx=0;exitDy=0;" edge="1" parent="1" source="8IddTJkrh0bzfAvgI1gN-4">
          <mxGeometry width="50" height="50" relative="1" as="geometry">
            <mxPoint x="-140" y="690" as="sourcePoint" />
            <mxPoint x="-140" y="678" as="targetPoint" />
          </mxGeometry>
        </mxCell>
        <mxCell id="8IddTJkrh0bzfAvgI1gN-29" value="" style="endArrow=classic;html=1;exitX=0;exitY=0.5;exitDx=0;exitDy=0;entryX=1;entryY=0.5;entryDx=0;entryDy=0;" edge="1" parent="1" source="8IddTJkrh0bzfAvgI1gN-5" target="8IddTJkrh0bzfAvgI1gN-6">
          <mxGeometry width="50" height="50" relative="1" as="geometry">
            <mxPoint x="-340" y="690" as="sourcePoint" />
            <mxPoint x="-290" y="640" as="targetPoint" />
          </mxGeometry>
        </mxCell>
      </root>
    </mxGraphModel>
  </diagram>
</mxfile>
